<svg xmlns="http://www.w3.org/2000/svg" width="32.275" height="32.275" viewBox="0 0 32.275089 32.275086">
    <g fill="#575756">
        <path d="M18.027 11.14l3.109 3.108-1.228 1.228-3.109-3.11zM23.687 5.479l3.109 3.108-1.228 1.228-3.108-3.108zM23.506 16.618l3.109 3.109-1.228 1.228-3.109-3.109zM29.166 10.958l3.11 3.109-1.229 1.227-3.108-3.108zM16.9 8.673l3.11-3.108 1.227 1.227-3.108 3.109zM22.374 14.146l3.108-3.108 1.228 1.227-3.108 3.109zM27.848 19.62l3.108-3.109 1.228 1.228-3.109 3.109zM11.232 14.341l3.11-3.108 1.227 1.228-3.109 3.108zM16.705 19.814l3.11-3.108 1.227 1.228-3.109 3.108zM22.18 25.288l3.108-3.108 1.228 1.227-3.109 3.11z"/>
    </g>
    <g fill="#db202e">
        <path d="M6.707 22.459l3.11 3.109-1.23 1.228-3.108-3.109zM12.367 16.799l3.11 3.109-1.229 1.228-3.109-3.109zM12.187 27.938l3.109 3.11-1.229 1.228-3.109-3.11zM17.847 22.278l3.109 3.11-1.229 1.227-3.109-3.109zM1.228 16.98l3.109 3.109-1.228 1.228-3.11-3.109zM6.888 11.32l3.109 3.109-1.228 1.228-3.11-3.11zM12.548 5.66l3.109 3.109-1.228 1.228-3.11-3.109zM18.208 0l3.109 3.109-1.229 1.228-3.109-3.109zM11.427 3.2l3.11-3.11 1.227 1.229-3.109 3.109zM5.759 8.868l3.109-3.11 1.228 1.229-3.109 3.109zM.09 14.536l3.11-3.109 1.228 1.228-3.109 3.11zM5.564 20.01l3.11-3.11L9.9 18.128l-3.109 3.11zM11.038 25.483l3.109-3.11 1.228 1.229-3.11 3.109zM16.511 30.956l3.11-3.109 1.227 1.228-3.109 3.11z"/>
    </g>
</svg>
